<?xml version="1.0" encoding="UTF-8"?>
<!DOCTYPE svg PUBLIC "-//W3C//DTD SVG 1.1//EN" "http://www.w3.org/Graphics/SVG/1.1/DTD/svg11.dtd">
<!-- Creator: CorelDRAW X7 -->
<svg xmlns="http://www.w3.org/2000/svg" xml:space="preserve" width="14.6636mm" height="14.5879mm" version="1.1" style="shape-rendering:geometricPrecision; text-rendering:geometricPrecision; image-rendering:optimizeQuality; fill-rule:evenodd; clip-rule:evenodd"
viewBox="0 0 113 113"
 xmlns:xlink="http://www.w3.org/1999/xlink">
 <defs>
  <style type="text/css">
   <![CDATA[
    .str0 {stroke:#2B2A29;stroke-width:1.54579}
    .fil0 {fill:#22A2DD}
   ]]>
  </style>
 </defs>
 <g id="Слой_x0020_1">
  <metadata id="CorelCorpID_0Corel-Layer"/>
  <g id="_332650352">
   <path class="fil0" d="M84 46c-1,1 -3,3 -2,5 0,0 1,1 1,1 2,2 3,1 5,0 0,-1 0,-2 0,-3 0,-1 -1,-2 -1,-2 -1,-1 -2,-1 -3,-1z"/>
   <path class="fil0" d="M7 35c1,0 2,-2 3,-3 3,-3 9,-6 13,-8 5,-2 10,-3 15,-2 5,0 10,6 12,2 2,-3 0,-4 -3,-5 -23,-10 -51,18 -40,16z"/>
   <path class="fil0" d="M19 19c1,0 3,-2 4,-2 4,-2 11,-3 15,-3 5,0 11,1 15,3 4,3 7,10 10,8 3,-3 2,-5 -1,-7 -17,-18 -54,-2 -43,1z"/>
   <path class="fil0" d="M36 7c1,1 3,0 4,0 5,0 12,1 16,3 4,2 9,5 12,9 3,4 3,11 7,10 4,-1 3,-3 2,-6 -10,-23 -50,-22 -41,-16z"/>
   <path class="fil0" d="M3 56c0,0 1,-3 1,-4 2,-4 6,-10 9,-13 4,-4 8,-7 13,-8 5,-1 11,2 13,-2 0,-4 -2,-4 -6,-4 -25,-1 -39,37 -30,31z"/>
   <path class="fil0" d="M6 76c1,0 0,-3 0,-4 1,-5 2,-11 4,-15 2,-5 5,-10 9,-12 4,-4 11,-3 11,-7 -1,-4 -4,-3 -7,-2 -23,9 -23,49 -17,40z"/>
   <path class="fil0" d="M18 94c0,-1 -1,-3 -2,-4 -1,-4 -3,-11 -3,-15 0,-5 1,-11 4,-15 2,-4 9,-7 7,-10 -3,-3 -5,-2 -7,1 -18,17 -1,54 1,43z"/>
   <path class="fil0" d="M36 106c0,-1 -3,-2 -3,-3 -4,-3 -7,-9 -9,-13 -2,-4 -3,-10 -3,-15 1,-5 6,-10 3,-12 -3,-2 -5,0 -6,3 -10,23 20,51 18,40z"/>
   <path class="fil0" d="M55 110c0,-1 -3,-1 -4,-2 -4,-2 -9,-5 -13,-9 -3,-3 -6,-8 -7,-12 -2,-5 1,-12 -3,-13 -3,0 -3,2 -3,5 -1,25 36,40 30,31z"/>
   <path class="fil0" d="M76 106c0,0 -3,0 -4,0 -5,0 -11,-1 -16,-3 -4,-2 -9,-5 -12,-9 -3,-4 -2,-11 -6,-10 -4,0 -3,3 -2,6 9,23 49,23 40,16z"/>
   <path class="fil0" d="M94 95c-1,0 -3,1 -4,2 -4,1 -11,3 -15,3 -5,0 -11,-1 -15,-4 -4,-2 -7,-9 -10,-7 -3,2 -2,4 1,6 17,18 54,3 43,0z"/>
   <path class="fil0" d="M106 78c-1,0 -2,2 -3,3 -4,3 -9,7 -13,9 -5,2 -10,3 -15,2 -5,-1 -10,-6 -13,-3 -1,3 1,4 4,6 22,10 51,-19 40,-17z"/>
   <path class="fil0" d="M111 58c-1,0 -2,3 -2,4 -2,4 -6,10 -9,13 -4,3 -8,6 -13,7 -5,2 -11,-2 -13,2 0,4 2,4 5,4 25,1 41,-36 32,-30z"/>
   <circle class="fil0 str0" cx="85" cy="50" r="4"/>
   <path class="fil0" d="M57 1c-2,3 11,4 19,14 1,1 2,3 3,4 2,2 3,6 4,9 0,1 0,3 0,4 0,4 0,3 -6,4 -4,1 -19,9 -12,13 1,2 3,-1 4,-2 8,-9 22,-8 32,-5l4 1c2,2 -1,12 -2,15 -1,3 -4,7 -6,9 -2,2 -6,6 -8,8 -1,0 -4,2 -3,4 1,1 4,-1 6,-2 3,-1 12,-12 14,-15 2,-4 3,-6 4,-10 1,-4 1,-14 -3,-16 -3,-2 -3,1 -4,2 -5,-1 -9,-2 -13,-2 -4,0 -2,-3 -3,-9 -1,-7 -5,-11 -9,-16 -4,-3 -8,-6 -11,-8 -3,-1 -9,-4 -10,-2z"/>
  </g>
 </g>
</svg>
